<svg xmlns="http://www.w3.org/2000/svg" viewBox="0 0 206.94 98.36"><defs><style>.cls-1{fill:#fff;}.cls-2,.cls-3{fill:none;stroke-miterlimit:10;}.cls-2{stroke:#ab1f3c;stroke-width:10px;}.cls-3{stroke:#fff;stroke-width:5px;}.cls-4{fill:#ab1e3b;}</style></defs><title>IRPA Logo</title><g id="Layer_2" data-name="Layer 2"><g id="Layer_1-2" data-name="Layer 1"><g id="path2999"><path class="cls-1" d="M83.92,64.92l.18-45.58,21.75.16.1,45.27h2.55l.19-56.33,22.64-.06L131.22,65l2.47.07.07-49.38,22.86.38-.32,48.73,2.63.09.19-25.6,23.1.51.14,25.45,8,.15L190.3,68l-3.19,0c-.12.18,3.14,1.88,7.24,4.12s7.5,4.34,7.57,4.67c.21,1.06-1.51,1.57-5.35,1.59-2,0-4.9-.12-6.4-.28l-2.71-.31v3.6c0,2.8-.16,3.94-.76,5.15a15.76,15.76,0,0,1-6,5.92c-1.74.84-2,.85-20.14.85-10.1,0-18.61-.16-18.91-.35-1.22-.77.85-6.55,2.78-7.76A29.74,29.74,0,0,1,150.25,84a42.18,42.18,0,0,0,5.56-1c.42-.24.16-.6-1.07-1.5-1.59-1.17-1.65-1.18-3.43-.66-6.74,2-19.49,3-34.73,2.79-12.82-.2-16-.54-23.87-2.5l-4.2-1-2,2A17.07,17.07,0,0,1,78.07,87l-2.93.84-.22,1.84a3.72,3.72,0,0,1-1.28,2.76l-1.06.91-17.51,0c-9.63,0-17.72-.11-18-.22h0c-.79-.32-.57-1,1.1-3.66,1.93-3,5.3-6.54,6.25-6.54s.87-.49-.13-1.4c-1.17-1.06-2.91-4.68-3.82-8A9.26,9.26,0,0,0,39,70.18a40.54,40.54,0,0,0-3.84-2A57.14,57.14,0,0,1,16,52.7a70.53,70.53,0,0,0-6.82-6.91,43.88,43.88,0,0,1-4-3.73c-.78-1.4,1.86-6.72,4.43-8.92,1.85-1.58,6.29-3.15,7.74-2.73a39.35,39.35,0,0,1,4.41,2.36c3.26,1.95,3.6,2.07,4.75,1.67a16.78,16.78,0,0,1,4.43-.29c4.13.17,6.9,1.49,11.7,5.56,3.85,3.26,6,4.64,7.77,5,1,.21,1.47,0,3.38-1.67A124.59,124.59,0,0,1,74.56,28.48l3.57-2.57.15-20.82,3,.06.2,59.78" transform="translate(0)"/><path class="cls-2" d="M83.92,64.92l.18-45.58,21.75.16.1,45.27h2.55l.19-56.33,22.64-.06L131.22,65l2.47.07.07-49.38,22.86.38-.32,48.73,2.63.09.19-25.6,23.1.51.14,25.45,8,.15L190.3,68l-3.19,0c-.12.18,3.14,1.88,7.24,4.12s7.5,4.34,7.57,4.67c.21,1.06-1.51,1.57-5.35,1.59-2,0-4.9-.12-6.4-.28l-2.71-.31v3.6c0,2.8-.16,3.94-.76,5.15a15.76,15.76,0,0,1-6,5.92c-1.74.84-2,.85-20.14.85-10.1,0-18.61-.16-18.91-.35-1.22-.77.85-6.55,2.78-7.76A29.74,29.74,0,0,1,150.25,84a42.18,42.18,0,0,0,5.56-1c.42-.24.16-.6-1.07-1.5-1.59-1.17-1.65-1.18-3.43-.66-6.74,2-19.49,3-34.73,2.79-12.82-.2-16-.54-23.87-2.5l-4.2-1-2,2A17.07,17.07,0,0,1,78.07,87l-2.93.84-.22,1.84a3.72,3.72,0,0,1-1.28,2.76l-1.06.91-17.51,0c-9.63,0-17.72-.11-18-.22h0c-.79-.32-.57-1,1.1-3.66,1.93-3,5.3-6.54,6.25-6.54s.87-.49-.13-1.4c-1.17-1.06-2.91-4.68-3.82-8A9.26,9.26,0,0,0,39,70.18a40.54,40.54,0,0,0-3.84-2A57.14,57.14,0,0,1,16,52.7a70.53,70.53,0,0,0-6.82-6.91,43.88,43.88,0,0,1-4-3.73c-.78-1.4,1.86-6.72,4.43-8.92,1.85-1.58,6.29-3.15,7.74-2.73a39.35,39.35,0,0,1,4.41,2.36c3.26,1.95,3.6,2.07,4.75,1.67a16.78,16.78,0,0,1,4.43-.29c4.13.17,6.9,1.49,11.7,5.56,3.85,3.26,6,4.64,7.77,5,1,.21,1.47,0,3.38-1.67A124.59,124.59,0,0,1,74.56,28.48l3.57-2.57.15-20.82,3,.06.2,59.78" transform="translate(0)"/><path class="cls-3" d="M83.92,64.92l.18-45.58,21.75.16.1,45.27h2.55l.19-56.33,22.64-.06L131.22,65l2.47.07.07-49.38,22.86.38-.32,48.73,2.63.09.19-25.6,23.1.51.14,25.45,8,.15L190.3,68l-3.19,0c-.12.18,3.14,1.88,7.24,4.12s7.5,4.34,7.57,4.67c.21,1.06-1.51,1.57-5.35,1.59-2,0-4.9-.12-6.4-.28l-2.71-.31v3.6c0,2.8-.16,3.94-.76,5.15a15.76,15.76,0,0,1-6,5.92c-1.74.84-2,.85-20.14.85-10.1,0-18.61-.16-18.91-.35-1.22-.77.85-6.55,2.78-7.76A29.74,29.74,0,0,1,150.25,84a42.18,42.18,0,0,0,5.56-1c.42-.24.16-.6-1.07-1.5-1.59-1.17-1.65-1.18-3.43-.66-6.74,2-19.49,3-34.73,2.79-12.82-.2-16-.54-23.87-2.5l-4.2-1-2,2A17.07,17.07,0,0,1,78.07,87l-2.93.84-.22,1.84a3.72,3.72,0,0,1-1.28,2.76l-1.06.91-17.51,0c-9.63,0-17.72-.11-18-.22h0c-.79-.32-.57-1,1.1-3.66,1.93-3,5.3-6.54,6.25-6.54s.87-.49-.13-1.4c-1.17-1.06-2.91-4.68-3.82-8A9.26,9.26,0,0,0,39,70.18a40.54,40.54,0,0,0-3.84-2A57.14,57.14,0,0,1,16,52.7a70.53,70.53,0,0,0-6.82-6.91,43.88,43.88,0,0,1-4-3.73c-.78-1.4,1.86-6.72,4.43-8.92,1.85-1.58,6.29-3.15,7.74-2.73a39.35,39.35,0,0,1,4.41,2.36c3.26,1.95,3.6,2.07,4.75,1.67a16.78,16.78,0,0,1,4.43-.29c4.13.17,6.9,1.49,11.7,5.56,3.85,3.26,6,4.64,7.77,5,1,.21,1.47,0,3.38-1.67A124.59,124.59,0,0,1,74.56,28.48l3.57-2.57.15-20.82,3,.06.2,59.78" transform="translate(0)"/><path class="cls-4" d="M83.92,64.92l.18-45.58,21.75.16.1,45.27h2.55l.19-56.33,22.64-.06L131.22,65l2.47.07.07-49.38,22.86.38-.32,48.73,2.63.09.19-25.6,23.1.51.14,25.45,8,.15L190.3,68l-3.19,0c-.12.18,3.14,1.88,7.24,4.12s7.5,4.34,7.57,4.67c.21,1.06-1.51,1.57-5.35,1.59-2,0-4.9-.12-6.4-.28l-2.71-.31v3.6c0,2.8-.16,3.94-.76,5.15a15.76,15.76,0,0,1-6,5.92c-1.74.84-2,.85-20.14.85-10.1,0-18.61-.16-18.91-.35-1.22-.77.85-6.55,2.78-7.76A29.74,29.74,0,0,1,150.25,84a42.18,42.18,0,0,0,5.56-1c.42-.24.16-.6-1.07-1.5-1.59-1.17-1.65-1.18-3.43-.66-6.74,2-19.49,3-34.73,2.79-12.82-.2-16-.54-23.87-2.5l-4.2-1-2,2A17.07,17.07,0,0,1,78.07,87l-2.93.84-.22,1.84a3.72,3.72,0,0,1-1.28,2.76l-1.06.91-17.51,0c-9.63,0-17.72-.11-18-.22h0c-.79-.32-.57-1,1.1-3.66,1.93-3,5.3-6.54,6.25-6.54s.87-.49-.13-1.4c-1.17-1.06-2.91-4.68-3.82-8A9.26,9.26,0,0,0,39,70.18a40.54,40.54,0,0,0-3.84-2A57.14,57.14,0,0,1,16,52.7a70.53,70.53,0,0,0-6.82-6.91,43.88,43.88,0,0,1-4-3.73c-.78-1.4,1.86-6.72,4.43-8.92,1.85-1.58,6.29-3.15,7.74-2.73a39.35,39.35,0,0,1,4.41,2.36c3.26,1.95,3.6,2.07,4.75,1.67a16.78,16.78,0,0,1,4.43-.29c4.13.17,6.9,1.49,11.7,5.56,3.85,3.26,6,4.64,7.77,5,1,.21,1.47,0,3.38-1.67A124.59,124.59,0,0,1,74.56,28.48l3.57-2.57.15-20.82,3,.06.2,59.78" transform="translate(0)"/></g></g></g></svg>